<?xml version="1.0" encoding="UTF-8"?>
<svg width="22px" height="22px" viewBox="0 0 22 22" version="1.1" xmlns="http://www.w3.org/2000/svg" xmlns:xlink="http://www.w3.org/1999/xlink">
    <title>ant-design:info-circle-outlined</title>
    <g id="Page-1" stroke="none" stroke-width="1" fill="none" fill-rule="evenodd">
        <g id="Desktop" transform="translate(-1107.000000, -1487.000000)">
            <g id="Group-14" transform="translate(155.000000, 1449.508475)">
                <g id="Group-22" transform="translate(952.500000, 36.000000)">
                    <g id="ant-design:info-circle-outlined" transform="translate(0.000000, 1.500000)">
                        <rect id="ViewBox" x="0" y="0" width="20.48" height="20.48"></rect>
                        <path d="M10.24,1.28 C5.292,1.28 1.28,5.292 1.28,10.24 C1.28,15.188 5.292,19.2 10.24,19.2 C15.188,19.2 19.2,15.188 19.2,10.24 C19.2,5.292 15.188,1.28 10.24,1.28 Z M10.24,17.68 C6.132,17.68 2.8,14.348 2.8,10.24 C2.8,6.132 6.132,2.8 10.24,2.8 C14.348,2.8 17.68,6.132 17.68,10.24 C17.68,14.348 14.348,17.68 10.24,17.68 Z" id="Shape" fill="#FFFFFF" fill-rule="nonzero"></path>
                        <path d="M9.28,6.72 C9.28,7.25019336 9.70980664,7.68 10.24,7.68 C10.7701934,7.68 11.2,7.25019336 11.2,6.72 C11.2,6.18980664 10.7701934,5.76 10.24,5.76 C9.70980664,5.76 9.28,6.18980664 9.28,6.72 Z M10.72,8.96 L9.76,8.96 C9.672,8.96 9.6,9.032 9.6,9.12 L9.6,14.56 C9.6,14.648 9.672,14.72 9.76,14.72 L10.72,14.72 C10.808,14.72 10.88,14.648 10.88,14.56 L10.88,9.12 C10.88,9.032 10.808,8.96 10.72,8.96 Z" id="Shape" fill="#FFFFFF" fill-rule="nonzero"></path>
                    </g>
                </g>
            </g>
        </g>
    </g>
</svg>